<mxfile host="app.diagrams.net" modified="2021-03-04T13:33:04.322Z" agent="5.0 (Windows NT 10.0; Win64; x64) AppleWebKit/537.36 (KHTML, like Gecko) Chrome/88.0.4324.190 Safari/537.36" etag="n2GzjRjKu0081Ct1BAqz" version="14.4.4" type="github" pages="3">
  <diagram id="HWyvtCHbh2YzWsB2kVRe" name="Entitäten">
    <mxGraphModel dx="1422" dy="922" grid="1" gridSize="10" guides="1" tooltips="1" connect="1" arrows="1" fold="1" page="1" pageScale="1" pageWidth="827" pageHeight="1169" math="0" shadow="0">
      <root>
        <mxCell id="0" />
        <mxCell id="1" parent="0" />
        <mxCell id="jlJwlgQb6H1Z45xIeuQJ-1" value="&lt;p style=&quot;margin: 0px ; margin-top: 4px ; text-align: center&quot;&gt;&lt;b&gt;User&lt;/b&gt;&lt;/p&gt;&lt;hr size=&quot;1&quot;&gt;&lt;p style=&quot;margin: 0px ; margin-left: 4px&quot;&gt;+ Id: int&lt;/p&gt;&lt;hr size=&quot;1&quot;&gt;&lt;p style=&quot;margin: 0px ; margin-left: 4px&quot;&gt;&lt;br&gt;&lt;/p&gt;" style="verticalAlign=top;align=left;overflow=fill;fontSize=12;fontFamily=Helvetica;html=1;" parent="1" vertex="1">
          <mxGeometry x="40" y="175" width="160" height="90" as="geometry" />
        </mxCell>
        <mxCell id="jlJwlgQb6H1Z45xIeuQJ-4" value="&lt;p style=&quot;margin: 0px ; margin-top: 4px ; text-align: center&quot;&gt;&lt;b&gt;Chore&lt;/b&gt;&lt;/p&gt;&lt;hr size=&quot;1&quot;&gt;&lt;p style=&quot;margin: 0px ; margin-left: 4px&quot;&gt;+ Id: int&lt;/p&gt;&lt;hr size=&quot;1&quot;&gt;&lt;p style=&quot;margin: 0px ; margin-left: 4px&quot;&gt;&lt;br&gt;&lt;/p&gt;" style="verticalAlign=top;align=left;overflow=fill;fontSize=12;fontFamily=Helvetica;html=1;" parent="1" vertex="1">
          <mxGeometry x="576" y="85" width="160" height="90" as="geometry" />
        </mxCell>
        <mxCell id="jlJwlgQb6H1Z45xIeuQJ-5" value="&lt;p style=&quot;margin: 0px ; margin-top: 4px ; text-align: center&quot;&gt;&lt;b&gt;Reward&lt;/b&gt;&lt;/p&gt;&lt;hr size=&quot;1&quot;&gt;&lt;p style=&quot;margin: 0px ; margin-left: 4px&quot;&gt;+ Id: int&lt;/p&gt;&lt;hr size=&quot;1&quot;&gt;&lt;p style=&quot;margin: 0px ; margin-left: 4px&quot;&gt;&lt;br&gt;&lt;/p&gt;" style="verticalAlign=top;align=left;overflow=fill;fontSize=12;fontFamily=Helvetica;html=1;" parent="1" vertex="1">
          <mxGeometry x="576" y="265" width="160" height="90" as="geometry" />
        </mxCell>
        <mxCell id="jlJwlgQb6H1Z45xIeuQJ-10" value="&lt;h1&gt;Entitätenmodell&lt;/h1&gt;&lt;p&gt;Die vorhandenen Entitäten ihre identitätsstiftenden Attribute und die Verbindungen zwischen den Entitäten.&lt;/p&gt;" style="text;html=1;strokeColor=none;fillColor=none;spacing=5;spacingTop=-20;whiteSpace=wrap;overflow=hidden;rounded=0;" parent="1" vertex="1">
          <mxGeometry x="40" y="30" width="190" height="120" as="geometry" />
        </mxCell>
        <mxCell id="jlJwlgQb6H1Z45xIeuQJ-11" value="&lt;p style=&quot;margin: 0px ; margin-top: 4px ; text-align: center&quot;&gt;&lt;b&gt;Assignment&lt;/b&gt;&lt;/p&gt;&lt;hr size=&quot;1&quot;&gt;&lt;p style=&quot;margin: 0px ; margin-left: 4px&quot;&gt;+ Id: int&lt;/p&gt;&lt;hr size=&quot;1&quot;&gt;&lt;p style=&quot;margin: 0px ; margin-left: 4px&quot;&gt;&lt;br&gt;&lt;/p&gt;" style="verticalAlign=top;align=left;overflow=fill;fontSize=12;fontFamily=Helvetica;html=1;" parent="1" vertex="1">
          <mxGeometry x="330" y="85" width="160" height="90" as="geometry" />
        </mxCell>
        <mxCell id="jlJwlgQb6H1Z45xIeuQJ-12" value="&lt;p style=&quot;margin: 0px ; margin-top: 4px ; text-align: center&quot;&gt;&lt;b&gt;Grant&lt;/b&gt;&lt;/p&gt;&lt;hr size=&quot;1&quot;&gt;&lt;p style=&quot;margin: 0px ; margin-left: 4px&quot;&gt;+ Id: int&lt;/p&gt;&lt;hr size=&quot;1&quot;&gt;&lt;p style=&quot;margin: 0px ; margin-left: 4px&quot;&gt;&lt;br&gt;&lt;/p&gt;" style="verticalAlign=top;align=left;overflow=fill;fontSize=12;fontFamily=Helvetica;html=1;" parent="1" vertex="1">
          <mxGeometry x="330" y="265" width="160" height="90" as="geometry" />
        </mxCell>
        <mxCell id="jlJwlgQb6H1Z45xIeuQJ-14" value="has" style="endArrow=open;html=1;endSize=12;startArrow=diamondThin;startSize=14;startFill=1;edgeStyle=orthogonalEdgeStyle;exitX=1;exitY=0.75;exitDx=0;exitDy=0;entryX=0;entryY=0.5;entryDx=0;entryDy=0;" parent="1" source="jlJwlgQb6H1Z45xIeuQJ-1" target="jlJwlgQb6H1Z45xIeuQJ-12" edge="1">
          <mxGeometry relative="1" as="geometry">
            <mxPoint x="330" y="470" as="sourcePoint" />
            <mxPoint x="490" y="470" as="targetPoint" />
          </mxGeometry>
        </mxCell>
        <mxCell id="jlJwlgQb6H1Z45xIeuQJ-15" value="1" style="edgeLabel;resizable=0;html=1;align=left;verticalAlign=top;" parent="jlJwlgQb6H1Z45xIeuQJ-14" connectable="0" vertex="1">
          <mxGeometry x="-1" relative="1" as="geometry" />
        </mxCell>
        <mxCell id="jlJwlgQb6H1Z45xIeuQJ-16" value="0..n" style="edgeLabel;resizable=0;html=1;align=right;verticalAlign=top;" parent="jlJwlgQb6H1Z45xIeuQJ-14" connectable="0" vertex="1">
          <mxGeometry x="1" relative="1" as="geometry">
            <mxPoint x="-10.5" as="offset" />
          </mxGeometry>
        </mxCell>
        <mxCell id="jlJwlgQb6H1Z45xIeuQJ-17" value="has" style="endArrow=open;html=1;endSize=12;startArrow=diamondThin;startSize=14;startFill=1;edgeStyle=orthogonalEdgeStyle;exitX=1;exitY=0.25;exitDx=0;exitDy=0;entryX=0;entryY=0.5;entryDx=0;entryDy=0;" parent="1" source="jlJwlgQb6H1Z45xIeuQJ-1" target="jlJwlgQb6H1Z45xIeuQJ-11" edge="1">
          <mxGeometry relative="1" as="geometry">
            <mxPoint x="220" y="197.5" as="sourcePoint" />
            <mxPoint x="350" y="265" as="targetPoint" />
          </mxGeometry>
        </mxCell>
        <mxCell id="jlJwlgQb6H1Z45xIeuQJ-18" value="1" style="edgeLabel;resizable=0;html=1;align=left;verticalAlign=top;" parent="jlJwlgQb6H1Z45xIeuQJ-17" connectable="0" vertex="1">
          <mxGeometry x="-1" relative="1" as="geometry" />
        </mxCell>
        <mxCell id="jlJwlgQb6H1Z45xIeuQJ-19" value="0..n" style="edgeLabel;resizable=0;html=1;align=right;verticalAlign=top;" parent="jlJwlgQb6H1Z45xIeuQJ-17" connectable="0" vertex="1">
          <mxGeometry x="1" relative="1" as="geometry">
            <mxPoint x="-10.5" as="offset" />
          </mxGeometry>
        </mxCell>
        <mxCell id="DNhRPY2CX4wiwzdP40w5-1" value="has" style="endArrow=open;html=1;endSize=12;startArrow=diamondThin;startSize=14;startFill=0;edgeStyle=orthogonalEdgeStyle;exitX=1;exitY=0.5;exitDx=0;exitDy=0;entryX=0;entryY=0.5;entryDx=0;entryDy=0;" parent="1" source="jlJwlgQb6H1Z45xIeuQJ-11" target="jlJwlgQb6H1Z45xIeuQJ-4" edge="1">
          <mxGeometry relative="1" as="geometry">
            <mxPoint x="460" y="480" as="sourcePoint" />
            <mxPoint x="620" y="480" as="targetPoint" />
          </mxGeometry>
        </mxCell>
        <mxCell id="DNhRPY2CX4wiwzdP40w5-2" value="0..n" style="edgeLabel;resizable=0;html=1;align=left;verticalAlign=top;" parent="DNhRPY2CX4wiwzdP40w5-1" connectable="0" vertex="1">
          <mxGeometry x="-1" relative="1" as="geometry" />
        </mxCell>
        <mxCell id="DNhRPY2CX4wiwzdP40w5-3" value="1" style="edgeLabel;resizable=0;html=1;align=right;verticalAlign=top;" parent="DNhRPY2CX4wiwzdP40w5-1" connectable="0" vertex="1">
          <mxGeometry x="1" relative="1" as="geometry">
            <mxPoint x="-6" as="offset" />
          </mxGeometry>
        </mxCell>
        <mxCell id="DNhRPY2CX4wiwzdP40w5-4" value="has" style="endArrow=open;html=1;endSize=12;startArrow=diamondThin;startSize=14;startFill=0;edgeStyle=orthogonalEdgeStyle;exitX=1;exitY=0.5;exitDx=0;exitDy=0;entryX=0;entryY=0.5;entryDx=0;entryDy=0;" parent="1" source="jlJwlgQb6H1Z45xIeuQJ-12" target="jlJwlgQb6H1Z45xIeuQJ-5" edge="1">
          <mxGeometry relative="1" as="geometry">
            <mxPoint x="500" y="140" as="sourcePoint" />
            <mxPoint x="586" y="140" as="targetPoint" />
          </mxGeometry>
        </mxCell>
        <mxCell id="DNhRPY2CX4wiwzdP40w5-5" value="0..n" style="edgeLabel;resizable=0;html=1;align=left;verticalAlign=top;" parent="DNhRPY2CX4wiwzdP40w5-4" connectable="0" vertex="1">
          <mxGeometry x="-1" relative="1" as="geometry" />
        </mxCell>
        <mxCell id="DNhRPY2CX4wiwzdP40w5-6" value="1" style="edgeLabel;resizable=0;html=1;align=right;verticalAlign=top;" parent="DNhRPY2CX4wiwzdP40w5-4" connectable="0" vertex="1">
          <mxGeometry x="1" relative="1" as="geometry">
            <mxPoint x="-6" as="offset" />
          </mxGeometry>
        </mxCell>
      </root>
    </mxGraphModel>
  </diagram>
  <diagram id="v3RQ4YUrgYNMCv7_kBNh" name="Child Dashboard Modell">
    <mxGraphModel dx="1422" dy="922" grid="1" gridSize="10" guides="1" tooltips="1" connect="1" arrows="1" fold="1" page="1" pageScale="1" pageWidth="827" pageHeight="1169" math="0" shadow="0">
      <root>
        <mxCell id="7NkamTLYmC901lBKmUOy-0" />
        <mxCell id="7NkamTLYmC901lBKmUOy-1" parent="7NkamTLYmC901lBKmUOy-0" />
        <mxCell id="7NkamTLYmC901lBKmUOy-2" value="&lt;p style=&quot;margin: 0px ; margin-top: 4px ; text-align: center&quot;&gt;&lt;b&gt;User&lt;/b&gt;&lt;/p&gt;&lt;hr size=&quot;1&quot;&gt;&lt;p style=&quot;margin: 0px ; margin-left: 4px&quot;&gt;+ Id: int&lt;/p&gt;&lt;hr size=&quot;1&quot;&gt;&lt;p style=&quot;margin: 0px ; margin-left: 4px&quot;&gt;&lt;br&gt;&lt;/p&gt;" style="verticalAlign=top;align=left;overflow=fill;fontSize=12;fontFamily=Helvetica;html=1;" parent="7NkamTLYmC901lBKmUOy-1" vertex="1">
          <mxGeometry x="40" y="200" width="160" height="90" as="geometry" />
        </mxCell>
        <mxCell id="7NkamTLYmC901lBKmUOy-3" value="&lt;p style=&quot;margin: 0px ; margin-top: 4px ; text-align: center&quot;&gt;&lt;b&gt;Chore&lt;/b&gt;&lt;/p&gt;&lt;hr size=&quot;1&quot;&gt;&lt;p style=&quot;margin: 0px ; margin-left: 4px&quot;&gt;+ Id: int&lt;/p&gt;&lt;hr size=&quot;1&quot;&gt;&lt;p style=&quot;margin: 0px ; margin-left: 4px&quot;&gt;&lt;br&gt;&lt;/p&gt;" style="verticalAlign=top;align=left;overflow=fill;fontSize=12;fontFamily=Helvetica;html=1;" parent="7NkamTLYmC901lBKmUOy-1" vertex="1">
          <mxGeometry x="576" y="110" width="160" height="90" as="geometry" />
        </mxCell>
        <mxCell id="7NkamTLYmC901lBKmUOy-4" value="&lt;p style=&quot;margin: 0px ; margin-top: 4px ; text-align: center&quot;&gt;&lt;b&gt;Reward&lt;/b&gt;&lt;/p&gt;&lt;hr size=&quot;1&quot;&gt;&lt;p style=&quot;margin: 0px ; margin-left: 4px&quot;&gt;+ Id: int&lt;/p&gt;&lt;hr size=&quot;1&quot;&gt;&lt;p style=&quot;margin: 0px ; margin-left: 4px&quot;&gt;&lt;br&gt;&lt;/p&gt;" style="verticalAlign=top;align=left;overflow=fill;fontSize=12;fontFamily=Helvetica;html=1;" parent="7NkamTLYmC901lBKmUOy-1" vertex="1">
          <mxGeometry x="576" y="290" width="160" height="90" as="geometry" />
        </mxCell>
        <mxCell id="7NkamTLYmC901lBKmUOy-7" value="&lt;h1&gt;Modell für&lt;br&gt;Child Dashboard&lt;/h1&gt;&lt;p&gt;Das Modell optimiert für die Darstellung im Child Dashboard.&lt;/p&gt;" style="text;html=1;strokeColor=none;fillColor=none;spacing=5;spacingTop=-20;whiteSpace=wrap;overflow=hidden;rounded=0;" parent="7NkamTLYmC901lBKmUOy-1" vertex="1">
          <mxGeometry x="40" y="20" width="230" height="120" as="geometry" />
        </mxCell>
        <mxCell id="7NkamTLYmC901lBKmUOy-8" value="&lt;p style=&quot;margin: 0px ; margin-top: 4px ; text-align: center&quot;&gt;&lt;b&gt;Assignment&lt;/b&gt;&lt;/p&gt;&lt;hr size=&quot;1&quot;&gt;&lt;p style=&quot;margin: 0px ; margin-left: 4px&quot;&gt;+ Id: int&lt;/p&gt;&lt;p style=&quot;margin: 0px ; margin-left: 4px&quot;&gt;+ State: AssignmentState&lt;/p&gt;&lt;hr size=&quot;1&quot;&gt;&lt;p style=&quot;margin: 0px ; margin-left: 4px&quot;&gt;&lt;br&gt;&lt;/p&gt;" style="verticalAlign=top;align=left;overflow=fill;fontSize=12;fontFamily=Helvetica;html=1;" parent="7NkamTLYmC901lBKmUOy-1" vertex="1">
          <mxGeometry x="330" y="110" width="160" height="90" as="geometry" />
        </mxCell>
        <mxCell id="7NkamTLYmC901lBKmUOy-9" value="&lt;p style=&quot;margin: 0px ; margin-top: 4px ; text-align: center&quot;&gt;&lt;b&gt;Grant&lt;/b&gt;&lt;/p&gt;&lt;hr size=&quot;1&quot;&gt;&lt;p style=&quot;margin: 0px ; margin-left: 4px&quot;&gt;+ Id: int&lt;/p&gt;&lt;p style=&quot;margin: 0px ; margin-left: 4px&quot;&gt;+ State: GrantState&lt;br&gt;&lt;/p&gt;&lt;hr size=&quot;1&quot;&gt;&lt;p style=&quot;margin: 0px ; margin-left: 4px&quot;&gt;&lt;br&gt;&lt;/p&gt;" style="verticalAlign=top;align=left;overflow=fill;fontSize=12;fontFamily=Helvetica;html=1;" parent="7NkamTLYmC901lBKmUOy-1" vertex="1">
          <mxGeometry x="330" y="290" width="160" height="90" as="geometry" />
        </mxCell>
        <mxCell id="7NkamTLYmC901lBKmUOy-10" value="has" style="endArrow=open;html=1;endSize=12;startArrow=diamondThin;startSize=14;startFill=1;edgeStyle=orthogonalEdgeStyle;exitX=1;exitY=0.25;exitDx=0;exitDy=0;entryX=0;entryY=0.5;entryDx=0;entryDy=0;" parent="7NkamTLYmC901lBKmUOy-1" source="7NkamTLYmC901lBKmUOy-2" target="7NkamTLYmC901lBKmUOy-8" edge="1">
          <mxGeometry relative="1" as="geometry">
            <mxPoint x="330" y="470" as="sourcePoint" />
            <mxPoint x="490" y="470" as="targetPoint" />
          </mxGeometry>
        </mxCell>
        <mxCell id="7NkamTLYmC901lBKmUOy-11" value="1" style="edgeLabel;resizable=0;html=1;align=left;verticalAlign=top;" parent="7NkamTLYmC901lBKmUOy-10" connectable="0" vertex="1">
          <mxGeometry x="-1" relative="1" as="geometry" />
        </mxCell>
        <mxCell id="7NkamTLYmC901lBKmUOy-12" value="0..n" style="edgeLabel;resizable=0;html=1;align=right;verticalAlign=top;" parent="7NkamTLYmC901lBKmUOy-10" connectable="0" vertex="1">
          <mxGeometry x="1" relative="1" as="geometry">
            <mxPoint x="-10.5" y="5" as="offset" />
          </mxGeometry>
        </mxCell>
        <mxCell id="7NkamTLYmC901lBKmUOy-13" value="has" style="endArrow=open;html=1;endSize=12;startArrow=diamondThin;startSize=14;startFill=1;edgeStyle=orthogonalEdgeStyle;exitX=1;exitY=0.75;exitDx=0;exitDy=0;entryX=0;entryY=0.5;entryDx=0;entryDy=0;" parent="7NkamTLYmC901lBKmUOy-1" source="7NkamTLYmC901lBKmUOy-2" target="7NkamTLYmC901lBKmUOy-9" edge="1">
          <mxGeometry relative="1" as="geometry">
            <mxPoint x="210" y="232.5" as="sourcePoint" />
            <mxPoint x="340" y="165" as="targetPoint" />
          </mxGeometry>
        </mxCell>
        <mxCell id="7NkamTLYmC901lBKmUOy-14" value="1" style="edgeLabel;resizable=0;html=1;align=left;verticalAlign=top;" parent="7NkamTLYmC901lBKmUOy-13" connectable="0" vertex="1">
          <mxGeometry x="-1" relative="1" as="geometry" />
        </mxCell>
        <mxCell id="7NkamTLYmC901lBKmUOy-15" value="0..n" style="edgeLabel;resizable=0;html=1;align=right;verticalAlign=top;" parent="7NkamTLYmC901lBKmUOy-13" connectable="0" vertex="1">
          <mxGeometry x="1" relative="1" as="geometry">
            <mxPoint x="-10.5" y="5" as="offset" />
          </mxGeometry>
        </mxCell>
        <mxCell id="euRWDdj5jbn_2LVMHX3e-0" value="has" style="endArrow=open;html=1;endSize=12;startArrow=diamondThin;startSize=14;startFill=0;edgeStyle=orthogonalEdgeStyle;exitX=1;exitY=0.5;exitDx=0;exitDy=0;entryX=0;entryY=0.5;entryDx=0;entryDy=0;" parent="7NkamTLYmC901lBKmUOy-1" source="7NkamTLYmC901lBKmUOy-8" target="7NkamTLYmC901lBKmUOy-3" edge="1">
          <mxGeometry relative="1" as="geometry">
            <mxPoint x="490" y="130" as="sourcePoint" />
            <mxPoint x="576" y="130" as="targetPoint" />
          </mxGeometry>
        </mxCell>
        <mxCell id="euRWDdj5jbn_2LVMHX3e-1" value="0..n" style="edgeLabel;resizable=0;html=1;align=left;verticalAlign=top;" parent="euRWDdj5jbn_2LVMHX3e-0" connectable="0" vertex="1">
          <mxGeometry x="-1" relative="1" as="geometry" />
        </mxCell>
        <mxCell id="euRWDdj5jbn_2LVMHX3e-2" value="1" style="edgeLabel;resizable=0;html=1;align=right;verticalAlign=top;" parent="euRWDdj5jbn_2LVMHX3e-0" connectable="0" vertex="1">
          <mxGeometry x="1" relative="1" as="geometry">
            <mxPoint x="-6" as="offset" />
          </mxGeometry>
        </mxCell>
        <mxCell id="euRWDdj5jbn_2LVMHX3e-3" value="has" style="endArrow=open;html=1;endSize=12;startArrow=diamondThin;startSize=14;startFill=0;edgeStyle=orthogonalEdgeStyle;exitX=1;exitY=0.5;exitDx=0;exitDy=0;entryX=0;entryY=0.5;entryDx=0;entryDy=0;" parent="7NkamTLYmC901lBKmUOy-1" source="7NkamTLYmC901lBKmUOy-9" target="7NkamTLYmC901lBKmUOy-4" edge="1">
          <mxGeometry relative="1" as="geometry">
            <mxPoint x="500" y="140" as="sourcePoint" />
            <mxPoint x="586" y="140" as="targetPoint" />
          </mxGeometry>
        </mxCell>
        <mxCell id="euRWDdj5jbn_2LVMHX3e-4" value="0..n" style="edgeLabel;resizable=0;html=1;align=left;verticalAlign=top;" parent="euRWDdj5jbn_2LVMHX3e-3" connectable="0" vertex="1">
          <mxGeometry x="-1" relative="1" as="geometry" />
        </mxCell>
        <mxCell id="euRWDdj5jbn_2LVMHX3e-5" value="1" style="edgeLabel;resizable=0;html=1;align=right;verticalAlign=top;" parent="euRWDdj5jbn_2LVMHX3e-3" connectable="0" vertex="1">
          <mxGeometry x="1" relative="1" as="geometry">
            <mxPoint x="-6" as="offset" />
          </mxGeometry>
        </mxCell>
      </root>
    </mxGraphModel>
  </diagram>
  <diagram name="Parent Dashboard Modell" id="I9IO4JmWjApNNyQjdUNp">
    <mxGraphModel dx="1422" dy="922" grid="1" gridSize="10" guides="1" tooltips="1" connect="1" arrows="1" fold="1" page="1" pageScale="1" pageWidth="827" pageHeight="1169" math="0" shadow="0">
      <root>
        <mxCell id="o9vSeoDf0FDHIJgIUfVz-0" />
        <mxCell id="o9vSeoDf0FDHIJgIUfVz-1" parent="o9vSeoDf0FDHIJgIUfVz-0" />
        <mxCell id="o9vSeoDf0FDHIJgIUfVz-2" value="&lt;p style=&quot;margin: 0px ; margin-top: 4px ; text-align: center&quot;&gt;&lt;b&gt;User&lt;/b&gt;&lt;/p&gt;&lt;hr size=&quot;1&quot;&gt;&lt;p style=&quot;margin: 0px ; margin-left: 4px&quot;&gt;+ Id: int&lt;/p&gt;&lt;hr size=&quot;1&quot;&gt;&lt;p style=&quot;margin: 0px ; margin-left: 4px&quot;&gt;&lt;br&gt;&lt;/p&gt;" style="verticalAlign=top;align=left;overflow=fill;fontSize=12;fontFamily=Helvetica;html=1;" parent="o9vSeoDf0FDHIJgIUfVz-1" vertex="1">
          <mxGeometry x="590" y="240" width="160" height="90" as="geometry" />
        </mxCell>
        <mxCell id="o9vSeoDf0FDHIJgIUfVz-3" value="&lt;p style=&quot;margin: 0px ; margin-top: 4px ; text-align: center&quot;&gt;&lt;b&gt;Chore&lt;/b&gt;&lt;/p&gt;&lt;hr size=&quot;1&quot;&gt;&lt;p style=&quot;margin: 0px ; margin-left: 4px&quot;&gt;+ Id: int&lt;/p&gt;&lt;hr size=&quot;1&quot;&gt;&lt;p style=&quot;margin: 0px ; margin-left: 4px&quot;&gt;&lt;br&gt;&lt;/p&gt;" style="verticalAlign=top;align=left;overflow=fill;fontSize=12;fontFamily=Helvetica;html=1;" parent="o9vSeoDf0FDHIJgIUfVz-1" vertex="1">
          <mxGeometry x="40" y="160" width="160" height="90" as="geometry" />
        </mxCell>
        <mxCell id="o9vSeoDf0FDHIJgIUfVz-4" value="&lt;p style=&quot;margin: 0px ; margin-top: 4px ; text-align: center&quot;&gt;&lt;b&gt;Reward&lt;/b&gt;&lt;/p&gt;&lt;hr size=&quot;1&quot;&gt;&lt;p style=&quot;margin: 0px ; margin-left: 4px&quot;&gt;+ Id: int&lt;/p&gt;&lt;hr size=&quot;1&quot;&gt;&lt;p style=&quot;margin: 0px ; margin-left: 4px&quot;&gt;&lt;br&gt;&lt;/p&gt;" style="verticalAlign=top;align=left;overflow=fill;fontSize=12;fontFamily=Helvetica;html=1;" parent="o9vSeoDf0FDHIJgIUfVz-1" vertex="1">
          <mxGeometry x="40" y="310" width="160" height="90" as="geometry" />
        </mxCell>
        <mxCell id="o9vSeoDf0FDHIJgIUfVz-7" value="&lt;h1&gt;Modell für&lt;br&gt;Parent Dashboard&lt;/h1&gt;&lt;p&gt;Das Modell optimiert für die Darstellung im Parent Dashboard.&lt;/p&gt;" style="text;html=1;strokeColor=none;fillColor=none;spacing=5;spacingTop=-20;whiteSpace=wrap;overflow=hidden;rounded=0;" parent="o9vSeoDf0FDHIJgIUfVz-1" vertex="1">
          <mxGeometry x="40" y="20" width="230" height="120" as="geometry" />
        </mxCell>
        <mxCell id="o9vSeoDf0FDHIJgIUfVz-8" value="&lt;p style=&quot;margin: 0px ; margin-top: 4px ; text-align: center&quot;&gt;&lt;b&gt;Assignment&lt;/b&gt;&lt;/p&gt;&lt;hr size=&quot;1&quot;&gt;&lt;p style=&quot;margin: 0px ; margin-left: 4px&quot;&gt;+ Id: int&lt;/p&gt;&lt;p style=&quot;margin: 0px ; margin-left: 4px&quot;&gt;+ State: AssignmentState&lt;/p&gt;&lt;hr size=&quot;1&quot;&gt;&lt;p style=&quot;margin: 0px ; margin-left: 4px&quot;&gt;&lt;br&gt;&lt;/p&gt;" style="verticalAlign=top;align=left;overflow=fill;fontSize=12;fontFamily=Helvetica;html=1;" parent="o9vSeoDf0FDHIJgIUfVz-1" vertex="1">
          <mxGeometry x="330" y="160" width="160" height="90" as="geometry" />
        </mxCell>
        <mxCell id="o9vSeoDf0FDHIJgIUfVz-9" value="&lt;p style=&quot;margin: 0px ; margin-top: 4px ; text-align: center&quot;&gt;&lt;b&gt;Grant&lt;/b&gt;&lt;/p&gt;&lt;hr size=&quot;1&quot;&gt;&lt;p style=&quot;margin: 0px ; margin-left: 4px&quot;&gt;+ Id: int&lt;/p&gt;&lt;p style=&quot;margin: 0px ; margin-left: 4px&quot;&gt;+ State: GrantState&lt;br&gt;&lt;/p&gt;&lt;hr size=&quot;1&quot;&gt;&lt;p style=&quot;margin: 0px ; margin-left: 4px&quot;&gt;&lt;br&gt;&lt;/p&gt;" style="verticalAlign=top;align=left;overflow=fill;fontSize=12;fontFamily=Helvetica;html=1;" parent="o9vSeoDf0FDHIJgIUfVz-1" vertex="1">
          <mxGeometry x="330" y="310" width="160" height="90" as="geometry" />
        </mxCell>
        <mxCell id="o9vSeoDf0FDHIJgIUfVz-16" value="has" style="endArrow=open;html=1;endSize=12;startArrow=diamondThin;startSize=14;startFill=1;edgeStyle=orthogonalEdgeStyle;exitX=1;exitY=0.5;exitDx=0;exitDy=0;entryX=0;entryY=0.5;entryDx=0;entryDy=0;" parent="o9vSeoDf0FDHIJgIUfVz-1" source="o9vSeoDf0FDHIJgIUfVz-3" target="o9vSeoDf0FDHIJgIUfVz-8" edge="1">
          <mxGeometry relative="1" as="geometry">
            <mxPoint x="330" y="470" as="sourcePoint" />
            <mxPoint x="490" y="470" as="targetPoint" />
          </mxGeometry>
        </mxCell>
        <mxCell id="o9vSeoDf0FDHIJgIUfVz-17" value="1" style="edgeLabel;resizable=0;html=1;align=left;verticalAlign=top;" parent="o9vSeoDf0FDHIJgIUfVz-16" connectable="0" vertex="1">
          <mxGeometry x="-1" relative="1" as="geometry" />
        </mxCell>
        <mxCell id="o9vSeoDf0FDHIJgIUfVz-18" value="0..n" style="edgeLabel;resizable=0;html=1;align=right;verticalAlign=top;" parent="o9vSeoDf0FDHIJgIUfVz-16" connectable="0" vertex="1">
          <mxGeometry x="1" relative="1" as="geometry" />
        </mxCell>
        <mxCell id="o9vSeoDf0FDHIJgIUfVz-19" value="has" style="endArrow=open;html=1;endSize=12;startArrow=diamondThin;startSize=14;startFill=1;edgeStyle=orthogonalEdgeStyle;exitX=1;exitY=0.5;exitDx=0;exitDy=0;entryX=0;entryY=0.5;entryDx=0;entryDy=0;" parent="o9vSeoDf0FDHIJgIUfVz-1" source="o9vSeoDf0FDHIJgIUfVz-4" target="o9vSeoDf0FDHIJgIUfVz-9" edge="1">
          <mxGeometry relative="1" as="geometry">
            <mxPoint x="210" y="215" as="sourcePoint" />
            <mxPoint x="340" y="215" as="targetPoint" />
          </mxGeometry>
        </mxCell>
        <mxCell id="o9vSeoDf0FDHIJgIUfVz-20" value="1" style="edgeLabel;resizable=0;html=1;align=left;verticalAlign=top;" parent="o9vSeoDf0FDHIJgIUfVz-19" connectable="0" vertex="1">
          <mxGeometry x="-1" relative="1" as="geometry" />
        </mxCell>
        <mxCell id="o9vSeoDf0FDHIJgIUfVz-21" value="0..n" style="edgeLabel;resizable=0;html=1;align=right;verticalAlign=top;" parent="o9vSeoDf0FDHIJgIUfVz-19" connectable="0" vertex="1">
          <mxGeometry x="1" relative="1" as="geometry" />
        </mxCell>
        <mxCell id="o9vSeoDf0FDHIJgIUfVz-22" value="belongs to" style="endArrow=open;html=1;endSize=12;startArrow=diamondThin;startSize=14;startFill=0;edgeStyle=orthogonalEdgeStyle;exitX=1;exitY=0.5;exitDx=0;exitDy=0;entryX=0;entryY=0.25;entryDx=0;entryDy=0;" parent="o9vSeoDf0FDHIJgIUfVz-1" source="o9vSeoDf0FDHIJgIUfVz-8" target="o9vSeoDf0FDHIJgIUfVz-2" edge="1">
          <mxGeometry relative="1" as="geometry">
            <mxPoint x="330" y="470" as="sourcePoint" />
            <mxPoint x="490" y="470" as="targetPoint" />
          </mxGeometry>
        </mxCell>
        <mxCell id="o9vSeoDf0FDHIJgIUfVz-23" value="0..n" style="edgeLabel;resizable=0;html=1;align=left;verticalAlign=top;" parent="o9vSeoDf0FDHIJgIUfVz-22" connectable="0" vertex="1">
          <mxGeometry x="-1" relative="1" as="geometry" />
        </mxCell>
        <mxCell id="o9vSeoDf0FDHIJgIUfVz-24" value="1" style="edgeLabel;resizable=0;html=1;align=right;verticalAlign=top;" parent="o9vSeoDf0FDHIJgIUfVz-22" connectable="0" vertex="1">
          <mxGeometry x="1" relative="1" as="geometry">
            <mxPoint x="-10.5" as="offset" />
          </mxGeometry>
        </mxCell>
        <mxCell id="o9vSeoDf0FDHIJgIUfVz-25" value="belongs to" style="endArrow=open;html=1;endSize=12;startArrow=diamondThin;startSize=14;startFill=0;edgeStyle=orthogonalEdgeStyle;exitX=1;exitY=0.5;exitDx=0;exitDy=0;entryX=0;entryY=0.75;entryDx=0;entryDy=0;" parent="o9vSeoDf0FDHIJgIUfVz-1" source="o9vSeoDf0FDHIJgIUfVz-9" target="o9vSeoDf0FDHIJgIUfVz-2" edge="1">
          <mxGeometry relative="1" as="geometry">
            <mxPoint x="500" y="215" as="sourcePoint" />
            <mxPoint x="600" y="272.5" as="targetPoint" />
          </mxGeometry>
        </mxCell>
        <mxCell id="o9vSeoDf0FDHIJgIUfVz-26" value="0..n" style="edgeLabel;resizable=0;html=1;align=left;verticalAlign=top;" parent="o9vSeoDf0FDHIJgIUfVz-25" connectable="0" vertex="1">
          <mxGeometry x="-1" relative="1" as="geometry" />
        </mxCell>
        <mxCell id="o9vSeoDf0FDHIJgIUfVz-27" value="1" style="edgeLabel;resizable=0;html=1;align=right;verticalAlign=top;" parent="o9vSeoDf0FDHIJgIUfVz-25" connectable="0" vertex="1">
          <mxGeometry x="1" relative="1" as="geometry">
            <mxPoint x="-10.5" as="offset" />
          </mxGeometry>
        </mxCell>
      </root>
    </mxGraphModel>
  </diagram>
</mxfile>
